<svg version="1.1" id="Layer_1" xmlns="http://www.w3.org/2000/svg" xmlns:xlink="http://www.w3.org/1999/xlink" x="0px" y="0px"
	 width="100%" viewBox="0 0 249 202" enable-background="new 0 0 249 202" xml:space="preserve">
<path fill="#CC2232" opacity="1.000000" stroke="none" 
	d="
M0.999998,186.000000 
	C1.000000,186.000000 1.000000,185.500000 1.361917,185.104919 
	C3.483437,176.429428 5.285471,168.157791 6.995223,159.867126 
	C14.002577,125.888084 20.952991,91.897194 28.085291,57.944469 
	C28.348312,56.692375 30.115044,55.317184 31.479673,54.821381 
	C34.964550,53.555229 38.592789,52.645546 42.210556,51.791943 
	C48.081905,50.406616 53.990700,49.180000 60.216423,47.813339 
	C65.642258,84.917809 70.888451,120.793770 76.134644,156.669724 
	C76.507286,156.643478 76.879936,156.617249 77.252579,156.591003 
	C78.795464,118.375084 80.338348,80.159172 81.871323,42.188812 
	C88.580780,40.381992 94.882874,38.796703 101.112869,36.966053 
	C104.971390,35.832256 106.470276,36.604034 106.198990,41.000587 
	C105.296486,55.626266 104.733406,70.272682 104.008156,84.909561 
	C102.994461,105.367798 101.935577,125.823814 100.941727,146.283005 
	C100.813004,148.932770 100.956635,151.595764 100.909073,154.433853 
	C100.930450,154.861389 101.016846,155.107712 101.103241,155.354034 
	C101.396210,154.886017 101.689171,154.417999 101.984177,153.546143 
	C101.997620,152.644211 101.927811,152.128372 102.032120,151.650558 
	C107.113457,128.371170 112.170036,105.086266 117.317726,81.821526 
	C121.066147,64.880699 124.937019,47.966972 128.988708,30.878033 
	C129.487701,30.440018 129.751266,30.165131 130.310883,29.652466 
	C141.216110,26.787844 151.825317,24.160999 162.828461,21.436615 
	C163.040146,24.682127 163.188751,26.960306 163.260193,29.699257 
	C163.714737,32.440334 164.246414,34.720642 164.880661,37.416767 
	C165.351166,41.210953 165.719131,44.589321 165.929962,48.140099 
	C166.068909,48.875988 166.365005,49.439457 166.794113,50.399181 
	C166.986710,52.183731 167.046280,53.572025 166.946640,55.133751 
	C167.089249,55.872272 167.391083,56.437366 167.818054,57.399559 
	C168.008652,59.180077 168.074097,60.563499 167.976288,62.119644 
	C168.111435,62.862270 168.409851,63.432167 168.827911,64.421860 
	C169.352966,68.539902 169.758377,72.238167 169.997971,76.111580 
	C170.143280,76.858269 170.454407,77.429810 170.875458,78.399979 
	C171.060623,80.171669 171.135910,81.544731 171.008286,83.194832 
	C171.462967,86.314926 172.120544,89.157990 172.880676,92.416862 
	C173.351166,96.211021 173.719131,99.589355 173.929962,103.140114 
	C174.068924,103.875984 174.365005,104.439445 174.793976,105.399200 
	C174.986542,107.183762 175.046204,108.572037 174.946640,110.133728 
	C175.089249,110.872261 175.391068,111.437363 175.818054,112.399567 
	C176.008621,114.180107 176.074036,115.563538 175.976288,117.120430 
	C176.115433,117.863281 176.417740,118.432671 176.842346,119.419235 
	C177.331146,123.479790 177.697632,127.123169 178.084167,130.893250 
	C178.170059,131.264893 178.241684,131.508255 178.622467,131.440002 
	C179.284637,130.417374 179.761627,129.739883 179.984863,128.987122 
	C184.685455,113.137611 189.274521,97.254311 194.100082,81.443146 
	C195.153946,77.990166 195.766235,74.811401 193.749237,71.272598 
	C193.412888,70.658516 193.186264,70.326759 192.866531,69.934669 
	C192.773422,69.874344 192.881805,69.680717 192.769806,69.378876 
	C192.430008,68.716774 192.202209,68.356499 191.875671,67.937943 
	C191.776932,67.879669 191.882294,67.676003 191.768066,67.376846 
	C191.421448,66.723145 191.189041,66.368584 190.699951,65.785782 
	C185.581268,55.889427 180.719299,46.221317 175.747467,36.271011 
	C175.410538,35.657433 175.183487,35.326050 174.864105,34.933929 
	C174.771790,34.873192 174.882523,34.681927 174.770355,34.379902 
	C174.430252,33.717323 174.202316,33.356770 173.875671,32.937943 
	C173.776932,32.879669 173.882324,32.676033 173.768097,32.376892 
	C173.421478,31.723221 173.189072,31.368694 172.702682,30.789562 
	C171.281479,28.090990 170.114273,25.617022 168.960297,22.776379 
	C168.988007,21.920706 169.002472,21.431707 169.393967,20.945055 
	C170.874374,20.322205 171.907593,19.444510 173.093155,19.115053 
	C178.546097,17.599737 183.999390,16.008150 189.552399,14.986730 
	C190.886520,14.741330 192.602386,16.571222 194.252563,17.728910 
	C194.589493,18.342524 194.816544,18.673927 195.135895,19.066071 
	C195.228210,19.126810 195.117477,19.318077 195.229675,19.620100 
	C195.569778,20.282677 195.797699,20.643229 196.124451,21.062061 
	C196.223267,21.120338 196.118164,21.324299 196.231415,21.623468 
	C196.575455,22.277725 196.806244,22.632811 197.294891,23.215096 
	C200.358887,28.874243 203.165009,34.306194 206.149445,40.083309 
	C206.939606,38.668884 207.399338,37.845936 208.080551,36.732403 
	C208.477570,35.738434 208.653091,35.035049 208.770844,34.233437 
	C208.713074,34.135204 208.902496,34.008434 209.014496,33.910500 
	C209.304306,33.540012 209.289368,33.271015 209.098846,32.636429 
	C211.685806,25.158110 214.255661,18.048937 217.049316,10.737595 
	C217.516373,9.783892 217.759628,9.032357 218.374542,8.083486 
	C221.670090,7.211727 224.575562,6.439524 227.521866,5.883941 
	C233.062317,4.839191 238.626343,3.919499 244.218811,3.356300 
	C241.867050,11.172552 239.477051,18.580313 236.874741,26.281544 
	C236.499878,27.275793 236.337341,27.976572 236.231583,28.767994 
	C236.288376,28.858639 236.114258,28.982944 235.897675,29.277355 
	C235.516815,30.277674 235.352554,30.983582 235.163177,32.042439 
	C231.008774,45.604198 226.879486,58.813011 222.698303,72.156136 
	C222.628448,72.598526 222.755966,72.835808 223.124451,73.073349 
	C223.219940,73.144394 223.126678,73.363396 223.237885,73.656235 
	C223.576065,74.296097 223.803055,74.643120 224.222198,75.190857 
	C224.657089,76.075912 224.899826,76.760254 225.252579,77.727196 
	C225.589935,78.341675 225.817261,78.673553 226.138184,79.065720 
	C226.231781,79.126022 226.130630,79.324409 226.245071,79.627281 
	C226.593399,80.289375 226.827301,80.648590 227.145569,81.070419 
	C227.229950,81.133018 227.113434,81.307892 227.226746,81.611557 
	C227.568954,82.278130 227.797836,82.641022 228.125671,83.061768 
	C228.224625,83.119621 228.120224,83.323708 228.231750,83.624954 
	C228.571091,84.285439 228.798904,84.644669 229.125671,85.061752 
	C229.224640,85.119606 229.120224,85.323708 229.231750,85.624962 
	C229.571075,86.285446 229.798904,86.644669 230.125580,87.061737 
	C230.224426,87.119576 230.119781,87.323334 230.233246,87.622009 
	C230.578735,88.274338 230.810730,88.627991 231.017319,88.981934 
	C230.991898,88.982216 231.030182,88.948654 231.085083,89.234604 
	C231.440948,90.007729 231.741928,90.494911 232.017426,90.982285 
	C231.991943,90.982468 232.030182,90.948654 232.085083,91.234604 
	C232.440948,92.007729 232.741928,92.494911 233.017426,92.982285 
	C232.991943,92.982468 233.030182,92.948654 233.085083,93.234604 
	C233.440948,94.007729 233.741928,94.494911 234.017426,94.982285 
	C233.991943,94.982468 234.030182,94.948654 234.085342,95.235046 
	C234.441818,96.009644 234.743149,96.497849 235.301071,97.214401 
	C239.634277,105.497635 243.823410,113.499367 247.677628,121.659279 
	C248.326630,123.033310 247.529129,125.090561 247.011307,126.836388 
	C239.775879,128.296478 232.929123,129.752304 225.832825,130.983734 
	C224.957245,130.543427 224.331192,130.327515 223.462891,129.924255 
	C222.755966,128.410919 222.291290,127.084915 221.725632,125.442657 
	C221.399399,124.748833 221.174149,124.371254 220.715744,123.728256 
	C217.973297,117.683853 215.463989,111.904854 212.895126,105.874741 
	C212.234268,105.778702 211.632980,105.933792 211.028580,106.478836 
	C208.555115,115.943253 206.166565,125.041595 203.533188,134.068512 
	C203.098099,135.559982 201.833038,137.527985 200.537598,137.924927 
	C195.027847,139.613235 189.362366,140.793320 183.446777,142.238159 
	C182.763428,142.503220 182.387070,142.689072 181.627975,142.999420 
	C173.765289,144.875244 166.285339,146.626602 158.297928,148.496765 
	C157.768814,145.176025 157.357971,142.597565 157.098816,139.839752 
	C156.919449,139.106339 156.588379,138.552261 156.129059,137.639893 
	C155.994827,136.523071 155.988831,135.764542 156.130142,134.826691 
	C155.947830,134.097412 155.618210,133.547470 155.156738,132.625351 
	C154.779129,129.956573 154.936584,127.295280 150.952515,128.135406 
	C150.091064,128.463226 149.542603,128.752701 148.779541,129.270035 
	C147.444275,130.024277 146.323608,130.550659 144.884384,131.160095 
	C144.092636,131.674515 143.619431,132.105865 142.965240,132.762039 
	C141.864899,133.660965 140.945557,134.335068 139.750763,135.102722 
	C139.131500,135.635544 138.787704,136.074783 138.408798,136.458405 
	C138.373688,136.402771 138.493866,136.456284 138.263306,136.561096 
	C137.844604,136.939209 137.656494,137.212540 137.318024,137.343323 
	C137.167679,137.200806 137.493790,137.456375 137.263245,137.561188 
	C136.844620,137.939270 136.656509,138.212555 136.407059,138.396820 
	C136.345718,138.307816 136.513351,138.444351 136.239532,138.541687 
	C135.647369,139.102615 135.329041,139.566177 134.928940,140.310760 
	C134.058746,141.442108 133.270340,142.292435 132.214417,143.311584 
	C131.643677,144.020233 131.340424,144.560059 130.964111,145.427948 
	C129.609955,147.835358 128.328888,149.914734 126.856598,152.254852 
	C126.497681,152.913162 126.330002,153.310760 126.138557,154.003418 
	C125.318062,155.601227 124.521324,156.903931 123.423279,158.274200 
	C122.751724,158.517715 122.381477,158.693665 121.625412,158.976471 
	C114.006096,160.697586 106.772583,162.311844 99.045494,164.036255 
	C95.902008,181.278473 89.035095,196.556870 69.380455,201.887161 
	C66.325966,196.280106 66.101593,189.612503 69.144547,187.199280 
	C74.785561,182.725632 75.789513,176.547104 76.464401,169.279755 
	C70.509087,170.805084 65.086174,172.039474 59.762814,173.611053 
	C56.120682,174.686279 54.529285,173.490768 53.953163,169.873901 
	C53.044991,164.172424 51.880962,158.511703 50.802559,152.711761 
	C49.844723,152.881210 49.165333,152.901489 48.565781,153.130630 
	C47.640396,153.484329 46.720398,153.902679 45.883289,154.429047 
	C36.631001,160.247116 30.563942,168.688141 25.998674,178.419266 
	C25.264057,179.985107 24.083279,182.113968 22.710211,182.477570 
	C15.870336,184.288849 8.897267,185.597153 1.950620,186.802063 
	C1.620106,186.347763 1.310051,186.173889 0.999998,186.000000 
M141.937378,83.213867 
	C140.388107,92.151535 138.838837,101.089203 137.317032,109.868477 
	C140.882889,107.824226 144.291534,106.156891 147.339584,103.983788 
	C148.586166,103.095024 149.930725,100.982590 149.733810,99.647667 
	C148.283783,89.818535 146.455017,80.045273 144.480820,68.738617 
	C143.467026,74.257584 142.723907,78.303047 141.937378,83.213867 
M36.876900,128.097305 
	C36.433392,130.642014 35.989883,133.186737 35.533699,135.804184 
	C39.658340,133.105957 43.579517,130.540817 47.820213,127.766670 
	C46.102501,117.758980 44.314507,107.341820 42.526512,96.924652 
	C42.168468,96.936798 41.810425,96.948952 41.452381,96.961098 
	C39.968410,107.059845 38.484436,117.158585 36.876900,128.097305 
M101.261124,158.858353 
	C100.664658,158.969528 100.068184,159.080704 99.471718,159.191864 
	C99.651558,159.557907 99.831390,159.923935 100.011223,160.289978 
	C100.457977,159.979095 100.904732,159.668198 101.261124,158.858353 
z"/>
<path fill="#FEFDFD" opacity="1.000000" stroke="none" 
	d="
M244.180573,2.947814 
	C238.626343,3.919499 233.062317,4.839191 227.521866,5.883941 
	C224.575562,6.439524 221.670090,7.211727 218.071671,8.187441 
	C217.206604,9.305743 217.016052,10.122751 216.825500,10.939762 
	C214.255661,18.048937 211.685806,25.158110 208.994080,32.876427 
	C208.882294,33.659863 208.892395,33.834148 208.902496,34.008434 
	C208.902496,34.008434 208.713074,34.135204 208.494354,34.488899 
	C208.136780,35.569393 207.997925,36.296192 207.859070,37.022991 
	C207.399338,37.845936 206.939606,38.668884 206.149445,40.083309 
	C203.165009,34.306194 200.358887,28.874243 197.258789,22.882034 
	C196.682587,21.989286 196.400375,21.656796 196.118164,21.324301 
	C196.118164,21.324299 196.223267,21.120338 196.094147,20.725718 
	C195.682526,19.993423 195.399994,19.655752 195.117477,19.318077 
	C195.117477,19.318077 195.228210,19.126810 195.111572,18.743500 
	C194.710861,18.055689 194.426773,17.751190 194.142685,17.446695 
	C192.602386,16.571222 190.886520,14.741330 189.552399,14.986730 
	C183.999390,16.008150 178.546097,17.599737 173.093155,19.115053 
	C171.907593,19.444510 170.874374,20.322205 169.198853,20.739536 
	C168.733505,21.402132 168.840286,22.272591 168.947052,23.143051 
	C170.114273,25.617022 171.281479,28.090990 172.738922,31.122993 
	C173.313553,32.012699 173.597931,32.344372 173.882324,32.676037 
	C173.882324,32.676033 173.776932,32.879669 173.905945,33.274288 
	C174.317474,34.006580 174.599991,34.344254 174.882523,34.681931 
	C174.882523,34.681927 174.771790,34.873192 174.888428,35.256500 
	C175.289139,35.944275 175.573227,36.248745 175.857330,36.553207 
	C180.719299,46.221317 185.581268,55.889427 190.736191,66.119232 
	C191.313522,67.012619 191.597916,67.344307 191.882294,67.676003 
	C191.882294,67.676003 191.776932,67.879669 191.905869,68.274094 
	C192.317139,69.005920 192.599472,69.343323 192.881805,69.680725 
	C192.881805,69.680717 192.773422,69.874344 192.891388,70.256943 
	C193.292557,70.944679 193.575760,71.249802 193.858963,71.554932 
	C195.766235,74.811401 195.153946,77.990166 194.100082,81.443146 
	C189.274521,97.254311 184.685455,113.137611 179.984863,128.987122 
	C179.761627,129.739883 179.284637,130.417374 178.635696,131.174316 
	C178.251740,131.067963 178.157928,130.917252 178.064102,130.766556 
	C177.697632,127.123169 177.331146,123.479790 176.856583,119.143280 
	C176.545471,117.949104 176.342468,117.448036 176.139450,116.946976 
	C176.074036,115.563538 176.008621,114.180107 175.841125,112.125229 
	C175.527985,110.955956 175.316925,110.458130 175.105865,109.960304 
	C175.046204,108.572037 174.986542,107.183762 174.819839,105.125633 
	C174.504242,103.959747 174.295670,103.463722 174.087097,102.967697 
	C173.719131,99.589355 173.351166,96.211021 172.903992,92.027878 
	C172.286896,88.454651 171.749039,85.686226 171.211182,82.917793 
	C171.135910,81.544731 171.060623,80.171669 170.896454,78.119301 
	C170.592987,76.938805 170.378387,76.437614 170.163803,75.936424 
	C169.758377,72.238167 169.352966,68.539902 168.859070,64.146057 
	C168.560257,62.949291 168.349915,62.448105 168.139557,61.946918 
	C168.074097,60.563499 168.008652,59.180077 167.841125,57.125221 
	C167.527985,55.955967 167.316925,55.458145 167.105865,54.960323 
	C167.046280,53.572025 166.986710,52.183731 166.819977,50.125610 
	C166.504242,48.959755 166.295670,48.463722 166.087097,47.967690 
	C165.719131,44.589321 165.351166,41.210953 164.903564,37.024414 
	C164.328384,33.890320 163.832870,31.564404 163.337341,29.238485 
	C163.188751,26.960306 163.040146,24.682127 162.828461,21.436615 
	C151.825317,24.160999 141.216110,26.787844 129.983521,29.686871 
	C129.157852,30.319757 128.955566,30.680458 128.753296,31.041161 
	C124.937019,47.966972 121.066147,64.880699 117.317726,81.821526 
	C112.170036,105.086266 107.113457,128.371170 102.032120,151.650558 
	C101.927811,152.128372 101.997620,152.644211 101.738602,153.643265 
	C101.318710,154.180359 101.146408,154.216492 100.974106,154.252640 
	C100.956635,151.595764 100.813004,148.932770 100.941727,146.283005 
	C101.935577,125.823814 102.994461,105.367798 104.008156,84.909561 
	C104.733406,70.272682 105.296486,55.626266 106.198990,41.000587 
	C106.470276,36.604034 104.971390,35.832256 101.112869,36.966053 
	C94.882874,38.796703 88.580780,40.381992 81.871323,42.188812 
	C80.338348,80.159172 78.795464,118.375084 77.252579,156.591003 
	C76.879936,156.617249 76.507286,156.643478 76.134644,156.669724 
	C70.888451,120.793770 65.642258,84.917809 60.216423,47.813339 
	C53.990700,49.180000 48.081905,50.406616 42.210556,51.791943 
	C38.592789,52.645546 34.964550,53.555229 31.479673,54.821381 
	C30.115044,55.317184 28.348312,56.692375 28.085291,57.944469 
	C20.952991,91.897194 14.002577,125.888084 6.995223,159.867126 
	C5.285471,168.157791 3.483437,176.429428 1.361917,184.854919 
	C1.000000,123.729256 1.000000,62.458508 1.000000,1.000000 
	C82.354134,1.000000 163.708405,1.000000 245.455307,1.276396 
	C245.292145,2.017802 244.736359,2.482811 244.180573,2.947814 
z"/>
<path fill="#FFFEFE" opacity="1.000000" stroke="none" 
	d="
M127.047829,151.994110 
	C128.328888,149.914734 129.609955,147.835358 131.237885,145.272675 
	C131.883820,144.240509 132.182877,143.691635 132.481934,143.142761 
	C133.270340,142.292435 134.058746,141.442108 135.182510,140.191223 
	C135.849686,139.341904 136.181519,138.893127 136.513351,138.444351 
	C136.513351,138.444351 136.345718,138.307816 136.626175,138.277618 
	C137.180313,138.041595 137.376038,137.777924 137.493790,137.456375 
	C137.493790,137.456375 137.167679,137.200806 137.537140,137.224091 
	C138.180328,137.041550 138.376083,136.777847 138.493866,136.456284 
	C138.493866,136.456284 138.373688,136.402771 138.654831,136.324280 
	C139.299393,135.833588 139.662811,135.421387 140.026215,135.009171 
	C140.945557,134.335068 141.864899,133.660965 143.272552,132.648605 
	C144.241547,131.899246 144.722229,131.488129 145.202927,131.077026 
	C146.323608,130.550659 147.444275,130.024277 149.103760,129.264435 
	C150.183563,128.719696 150.724533,128.408401 151.265503,128.097107 
	C154.936584,127.295280 154.779129,129.956573 155.155975,132.898346 
	C155.518982,134.031036 155.750900,134.518524 155.982819,135.006012 
	C155.988831,135.764542 155.994827,136.523071 156.128967,137.914169 
	C156.487122,139.037521 156.717117,139.528305 156.947128,140.019089 
	C157.357971,142.597565 157.768814,145.176025 158.297928,148.496765 
	C166.285339,146.626602 173.765289,144.875244 181.965179,143.026627 
	C183.041336,142.672562 183.397552,142.415756 183.753754,142.158966 
	C189.362366,140.793320 195.027847,139.613235 200.537598,137.924927 
	C201.833038,137.527985 203.098099,135.559982 203.533188,134.068512 
	C206.166565,125.041595 208.555115,115.943253 211.337524,106.336525 
	C212.084610,105.911469 212.519638,106.018661 212.954681,106.125862 
	C215.463989,111.904854 217.973297,117.683853 220.733963,124.077545 
	C221.265762,125.047806 221.546188,125.403358 221.826599,125.758911 
	C222.291290,127.084915 222.755966,128.410919 223.512939,130.239716 
	C224.564301,130.897720 225.323334,131.052933 226.082382,131.208130 
	C232.929123,129.752304 239.775879,128.296478 247.444672,126.871956 
	C248.844467,126.935509 249.422241,126.967758 250.000000,127.000000 
	C250.000000,152.300110 250.000000,177.600220 250.000000,202.950165 
	C167.000015,202.950165 84.000008,202.950165 1.000000,202.950165 
	C1.000000,198.266357 1.000000,193.605835 1.182440,188.342545 
	C1.596691,187.548111 1.798759,187.329010 1.971081,187.082489 
	C8.897267,185.597153 15.870336,184.288849 22.710211,182.477570 
	C24.083279,182.113968 25.264057,179.985107 25.998674,178.419266 
	C30.563942,168.688141 36.631001,160.247116 45.883289,154.429047 
	C46.720398,153.902679 47.640396,153.484329 48.565781,153.130630 
	C49.165333,152.901489 49.844723,152.881210 50.802559,152.711761 
	C51.880962,158.511703 53.044991,164.172424 53.953163,169.873901 
	C54.529285,173.490768 56.120682,174.686279 59.762814,173.611053 
	C65.086174,172.039474 70.509087,170.805084 76.464401,169.279755 
	C75.789513,176.547104 74.785561,182.725632 69.144547,187.199280 
	C66.101593,189.612503 66.325966,196.280106 69.380455,201.887161 
	C89.035095,196.556870 95.902008,181.278473 99.045494,164.036255 
	C106.772583,162.311844 114.006096,160.697586 121.958252,159.013229 
	C123.026123,158.697632 123.375351,158.452133 123.724586,158.206650 
	C124.521324,156.903931 125.318062,155.601227 126.415878,153.799042 
	C126.827248,152.864426 126.937538,152.429276 127.047829,151.994110 
z"/>
<path fill="#FFFEFE" opacity="1.000000" stroke="none" 
	d="
M250.000000,126.531342 
	C249.422241,126.967758 248.844467,126.935509 247.833344,126.867699 
	C247.529129,125.090561 248.326630,123.033310 247.677628,121.659279 
	C243.823410,113.499367 239.634277,105.497635 235.284790,96.917397 
	C234.684662,95.910919 234.357422,95.429787 234.030182,94.948654 
	C234.030182,94.948654 233.991943,94.982468 234.001465,94.685768 
	C233.684067,93.908928 233.357132,93.428787 233.030182,92.948654 
	C233.030182,92.948654 232.991943,92.982468 233.001465,92.685776 
	C232.684052,91.908936 232.357117,91.428795 232.030182,90.948654 
	C232.030182,90.948654 231.991943,90.982468 232.001465,90.685776 
	C231.684052,89.908936 231.357117,89.428795 231.030182,88.948654 
	C231.030182,88.948654 230.991898,88.982216 230.981567,88.649139 
	C230.687408,87.985161 230.403595,87.654243 230.119781,87.323334 
	C230.119781,87.323334 230.224426,87.119576 230.095932,86.725723 
	C229.685028,85.995827 229.402618,85.659767 229.120224,85.323708 
	C229.120224,85.323708 229.224640,85.119606 229.096039,84.725739 
	C228.685043,83.995819 228.402634,83.659760 228.120224,83.323700 
	C228.120224,83.323708 228.224625,83.119621 228.094894,82.723686 
	C227.681259,81.987801 227.397354,81.647842 227.113434,81.307892 
	C227.113434,81.307892 227.229950,81.133018 227.118362,80.730568 
	C226.714722,79.993546 226.422684,79.658981 226.130630,79.324409 
	C226.130630,79.324409 226.231781,79.126022 226.113846,78.742722 
	C225.711456,78.054474 225.427002,77.749535 225.142548,77.444595 
	C224.899826,76.760254 224.657089,76.075912 224.199341,74.860809 
	C223.698456,74.007820 223.412567,73.685608 223.126678,73.363396 
	C223.126678,73.363396 223.219940,73.144394 223.120880,72.809433 
	C222.931259,72.323586 222.840714,72.172707 222.750183,72.021820 
	C226.879486,58.813011 231.008774,45.604198 235.443298,31.788910 
	C235.870453,30.449272 235.992355,29.716110 236.114258,28.982944 
	C236.114258,28.982944 236.288376,28.858639 236.505737,28.511692 
	C236.844437,27.439188 236.965759,26.713633 237.087067,25.988075 
	C239.477051,18.580313 241.867050,11.172552 244.218811,3.356306 
	C244.736359,2.482811 245.292145,2.017802 245.923965,1.276396 
	C247.328827,1.000000 248.657669,1.000000 249.993256,0.999999 
	C250.000000,42.687561 250.000000,84.375122 250.000000,126.531342 
z"/>
<path fill="#FEFDFD" opacity="1.000000" stroke="none" 
	d="
M1.950622,186.802063 
	C1.798759,187.329010 1.596691,187.548111 1.182440,187.869888 
	C1.000000,187.555557 1.000000,187.111099 0.999998,186.333344 
	C1.310051,186.173889 1.620106,186.347763 1.950622,186.802063 
z"/>
<path fill="#FCF6F6" opacity="1.000000" stroke="none" 
	d="
M141.959076,82.781189 
	C142.723907,78.303047 143.467026,74.257584 144.480820,68.738617 
	C146.455017,80.045273 148.283783,89.818535 149.733810,99.647667 
	C149.930725,100.982590 148.586166,103.095024 147.339584,103.983788 
	C144.291534,106.156891 140.882889,107.824226 137.317032,109.868477 
	C138.838837,101.089203 140.388107,92.151535 141.959076,82.781189 
z"/>
<path fill="#FCF5F5" opacity="1.000000" stroke="none" 
	d="
M36.938683,127.677322 
	C38.484436,117.158585 39.968410,107.059845 41.452381,96.961098 
	C41.810425,96.948952 42.168468,96.936798 42.526512,96.924652 
	C44.314507,107.341820 46.102501,117.758980 47.820213,127.766670 
	C43.579517,130.540817 39.658340,133.105957 35.533699,135.804184 
	C35.989883,133.186737 36.433392,130.642014 36.938683,127.677322 
z"/>
<path fill="#CC2332" opacity="1.000000" stroke="none" 
	d="
M171.008286,83.194832 
	C171.749039,85.686226 172.286896,88.454651 172.801453,91.612061 
	C172.120544,89.157990 171.462967,86.314926 171.008286,83.194832 
z"/>
<path fill="#CC2332" opacity="1.000000" stroke="none" 
	d="
M163.260193,29.699257 
	C163.832870,31.564404 164.328384,33.890320 164.800995,36.608593 
	C164.246414,34.720642 163.714737,32.440334 163.260193,29.699257 
z"/>
<path fill="#CC2332" opacity="1.000000" stroke="none" 
	d="
M101.306305,159.107834 
	C100.904732,159.668198 100.457977,159.979095 100.011223,160.289978 
	C99.831390,159.923935 99.651558,159.557907 99.471718,159.191864 
	C100.068184,159.080704 100.664658,158.969528 101.306305,159.107834 
z"/>
<path fill="#CC2332" opacity="1.000000" stroke="none" 
	d="
M165.929962,48.140102 
	C166.295670,48.463722 166.504242,48.959755 166.686951,49.729359 
	C166.365005,49.439457 166.068909,48.875988 165.929962,48.140102 
z"/>
<path fill="#CC2332" opacity="1.000000" stroke="none" 
	d="
M169.997971,76.111580 
	C170.378387,76.437614 170.592987,76.938805 170.786560,77.720673 
	C170.454407,77.429810 170.143280,76.858269 169.997971,76.111580 
z"/>
<path fill="#CC2332" opacity="1.000000" stroke="none" 
	d="
M174.946640,110.133728 
	C175.316925,110.458130 175.527985,110.955956 175.715973,111.728119 
	C175.391068,111.437363 175.089249,110.872261 174.946640,110.133728 
z"/>
<path fill="#CC2332" opacity="1.000000" stroke="none" 
	d="
M175.976288,117.120430 
	C176.342468,117.448036 176.545471,117.949104 176.734253,118.726120 
	C176.417740,118.432671 176.115433,117.863281 175.976288,117.120430 
z"/>
<path fill="#CC2332" opacity="1.000000" stroke="none" 
	d="
M212.895126,105.874741 
	C212.519638,106.018661 212.084610,105.911469 211.340622,105.946579 
	C211.632980,105.933792 212.234268,105.778702 212.895126,105.874741 
z"/>
<path fill="#CC2332" opacity="1.000000" stroke="none" 
	d="
M225.832825,130.983749 
	C225.323334,131.052933 224.564301,130.897720 223.755203,130.427048 
	C224.331192,130.327515 224.957245,130.543427 225.832825,130.983749 
z"/>
<path fill="#CC2332" opacity="1.000000" stroke="none" 
	d="
M173.929962,103.140114 
	C174.295670,103.463722 174.504242,103.959747 174.686951,104.729340 
	C174.365005,104.439445 174.068924,103.875984 173.929962,103.140114 
z"/>
<path fill="#CC2332" opacity="1.000000" stroke="none" 
	d="
M167.976288,62.119644 
	C168.349915,62.448105 168.560257,62.949291 168.739441,63.726273 
	C168.409851,63.432167 168.111435,62.862270 167.976288,62.119644 
z"/>
<path fill="#CC2332" opacity="1.000000" stroke="none" 
	d="
M166.946640,55.133751 
	C167.316925,55.458145 167.527985,55.955967 167.715973,56.728123 
	C167.391083,56.437366 167.089249,55.872272 166.946640,55.133751 
z"/>
<path fill="#CC2332" opacity="1.000000" stroke="none" 
	d="
M156.130127,134.826691 
	C155.750900,134.518524 155.518982,134.031036 155.287827,133.270538 
	C155.618210,133.547470 155.947830,134.097412 156.130127,134.826691 
z"/>
<path fill="#CC2332" opacity="1.000000" stroke="none" 
	d="
M157.098816,139.839752 
	C156.717117,139.528305 156.487122,139.037521 156.257217,138.272461 
	C156.588379,138.552261 156.919449,139.106339 157.098816,139.839752 
z"/>
<path fill="#CC2332" opacity="1.000000" stroke="none" 
	d="
M168.960297,22.776375 
	C168.840286,22.272591 168.733505,21.402132 168.821838,20.737192 
	C169.002472,21.431707 168.988007,21.920706 168.960297,22.776375 
z"/>
<path fill="#CC2332" opacity="1.000000" stroke="none" 
	d="
M217.049316,10.737593 
	C217.016052,10.122751 217.206604,9.305743 217.700012,8.384779 
	C217.759628,9.032357 217.516373,9.783892 217.049316,10.737593 
z"/>
<path fill="#CC2332" opacity="1.000000" stroke="none" 
	d="
M100.909081,154.433853 
	C101.146408,154.216492 101.318710,154.180359 101.736572,154.047089 
	C101.689171,154.417999 101.396210,154.886017 101.103241,155.354034 
	C101.016846,155.107712 100.930450,154.861389 100.909081,154.433853 
z"/>
<path fill="#CC2332" opacity="1.000000" stroke="none" 
	d="
M144.884384,131.160095 
	C144.722229,131.488129 144.241547,131.899246 143.453552,132.423782 
	C143.619431,132.105865 144.092636,131.674515 144.884384,131.160095 
z"/>
<path fill="#CC2332" opacity="1.000000" stroke="none" 
	d="
M234.085342,95.235046 
	C234.357422,95.429787 234.684662,95.910919 235.028198,96.689049 
	C234.743149,96.497849 234.441818,96.009644 234.085342,95.235046 
z"/>
<path fill="#CC2332" opacity="1.000000" stroke="none" 
	d="
M233.085083,93.234596 
	C233.357132,93.428787 233.684067,93.908928 234.026962,94.685585 
	C233.741928,94.494911 233.440948,94.007729 233.085083,93.234596 
z"/>
<path fill="#CC2332" opacity="1.000000" stroke="none" 
	d="
M232.085083,91.234604 
	C232.357117,91.428795 232.684052,91.908936 233.026947,92.685593 
	C232.741928,92.494911 232.440948,92.007729 232.085083,91.234604 
z"/>
<path fill="#CC2332" opacity="1.000000" stroke="none" 
	d="
M150.952515,128.135422 
	C150.724533,128.408401 150.183563,128.719696 149.318359,129.036591 
	C149.542603,128.752701 150.091064,128.463226 150.952515,128.135422 
z"/>
<path fill="#CC2332" opacity="1.000000" stroke="none" 
	d="
M231.085083,89.234604 
	C231.357117,89.428795 231.684052,89.908936 232.026947,90.685593 
	C231.741928,90.494911 231.440948,90.007729 231.085083,89.234604 
z"/>
<path fill="#CC2332" opacity="1.000000" stroke="none" 
	d="
M139.750763,135.102722 
	C139.662811,135.421387 139.299393,135.833588 138.689941,136.379913 
	C138.787704,136.074783 139.131500,135.635544 139.750763,135.102722 
z"/>
<path fill="#CC2332" opacity="1.000000" stroke="none" 
	d="
M136.239532,138.541687 
	C136.181519,138.893127 135.849686,139.341904 135.264282,139.910217 
	C135.329041,139.566177 135.647369,139.102615 136.239532,138.541687 
z"/>
<path fill="#CC2332" opacity="1.000000" stroke="none" 
	d="
M132.214417,143.311584 
	C132.182877,143.691635 131.883820,144.240509 131.310974,144.944641 
	C131.340424,144.560059 131.643677,144.020233 132.214417,143.311584 
z"/>
<path fill="#CC2332" opacity="1.000000" stroke="none" 
	d="
M236.874756,26.281546 
	C236.965759,26.713633 236.844437,27.439188 236.448944,28.421047 
	C236.337341,27.976572 236.499878,27.275793 236.874756,26.281546 
z"/>
<path fill="#CC2332" opacity="1.000000" stroke="none" 
	d="
M235.897675,29.277355 
	C235.992355,29.716110 235.870453,30.449272 235.468430,31.435963 
	C235.352554,30.983582 235.516815,30.277674 235.897675,29.277355 
z"/>
<path fill="#CC2332" opacity="1.000000" stroke="none" 
	d="
M208.080551,36.732403 
	C207.997925,36.296192 208.136780,35.569393 208.552124,34.587132 
	C208.653091,35.035049 208.477570,35.738434 208.080551,36.732403 
z"/>
<path fill="#CC2332" opacity="1.000000" stroke="none" 
	d="
M191.768066,67.376846 
	C191.597916,67.344307 191.313522,67.012619 190.992889,66.347481 
	C191.189041,66.368584 191.421448,66.723145 191.768066,67.376846 
z"/>
<path fill="#CC2332" opacity="1.000000" stroke="none" 
	d="
M123.423279,158.274200 
	C123.375351,158.452133 123.026123,158.697632 122.344055,158.906372 
	C122.381477,158.693665 122.751724,158.517715 123.423279,158.274200 
z"/>
<path fill="#CC2332" opacity="1.000000" stroke="none" 
	d="
M128.988708,30.878033 
	C128.955566,30.680458 129.157852,30.319757 129.687485,29.924650 
	C129.751266,30.165131 129.487701,30.440018 128.988708,30.878033 
z"/>
<path fill="#CC2332" opacity="1.000000" stroke="none" 
	d="
M126.856598,152.254852 
	C126.937538,152.429276 126.827248,152.864426 126.439636,153.503967 
	C126.330002,153.310760 126.497681,152.913162 126.856598,152.254852 
z"/>
<path fill="#CC2332" opacity="1.000000" stroke="none" 
	d="
M173.768097,32.376892 
	C173.597931,32.344372 173.313553,32.012699 172.992920,31.347599 
	C173.189072,31.368694 173.421478,31.723221 173.768097,32.376892 
z"/>
<path fill="#CC2332" opacity="1.000000" stroke="none" 
	d="
M183.446777,142.238159 
	C183.397552,142.415756 183.041336,142.672562 182.347931,142.902145 
	C182.387070,142.689072 182.763428,142.503220 183.446777,142.238159 
z"/>
<path fill="#CC2332" opacity="1.000000" stroke="none" 
	d="
M174.770355,34.379906 
	C174.599991,34.344254 174.317474,34.006580 174.004669,33.332561 
	C174.202316,33.356770 174.430252,33.717323 174.770355,34.379906 
z"/>
<path fill="#CC2332" opacity="1.000000" stroke="none" 
	d="
M209.014496,33.910500 
	C208.892395,33.834148 208.882294,33.659863 208.976959,33.245575 
	C209.289368,33.271015 209.304306,33.540012 209.014496,33.910500 
z"/>
<path fill="#CC2332" opacity="1.000000" stroke="none" 
	d="
M137.263245,137.561188 
	C137.376038,137.777924 137.180313,138.041595 136.687515,138.366638 
	C136.656509,138.212555 136.844620,137.939270 137.263245,137.561188 
z"/>
<path fill="#CC2332" opacity="1.000000" stroke="none" 
	d="
M138.263306,136.561096 
	C138.376083,136.777847 138.180328,137.041550 137.687500,137.366623 
	C137.656494,137.212540 137.844604,136.939209 138.263306,136.561096 
z"/>
<path fill="#CC2332" opacity="1.000000" stroke="none" 
	d="
M175.747467,36.271015 
	C175.573227,36.248745 175.289139,35.944275 174.980743,35.317238 
	C175.183487,35.326050 175.410538,35.657433 175.747467,36.271015 
z"/>
<path fill="#CC2332" opacity="1.000000" stroke="none" 
	d="
M178.084167,130.893250 
	C178.157928,130.917252 178.251740,131.067963 178.332336,131.484375 
	C178.241684,131.508255 178.170059,131.264893 178.084167,130.893250 
z"/>
<path fill="#CC2332" opacity="1.000000" stroke="none" 
	d="
M230.233246,87.622009 
	C230.403595,87.654243 230.687408,87.985161 231.006989,88.648857 
	C230.810730,88.627991 230.578735,88.274338 230.233246,87.622009 
z"/>
<path fill="#CC2332" opacity="1.000000" stroke="none" 
	d="
M192.769806,69.378883 
	C192.599472,69.343323 192.317139,69.005920 192.004608,68.332367 
	C192.202209,68.356499 192.430008,68.716774 192.769806,69.378883 
z"/>
<path fill="#CC2332" opacity="1.000000" stroke="none" 
	d="
M195.229675,19.620102 
	C195.399994,19.655752 195.682526,19.993423 195.995331,20.667439 
	C195.797699,20.643229 195.569778,20.282677 195.229675,19.620102 
z"/>
<path fill="#CC2332" opacity="1.000000" stroke="none" 
	d="
M193.749237,71.272598 
	C193.575760,71.249802 193.292557,70.944679 192.984497,70.317276 
	C193.186264,70.326759 193.412888,70.658516 193.749237,71.272598 
z"/>
<path fill="#CC2332" opacity="1.000000" stroke="none" 
	d="
M221.725647,125.442657 
	C221.546188,125.403358 221.265762,125.047806 220.967117,124.342957 
	C221.174149,124.371254 221.399399,124.748833 221.725647,125.442657 
z"/>
<path fill="#CC2332" opacity="1.000000" stroke="none" 
	d="
M222.698288,72.156136 
	C222.840714,72.172707 222.931259,72.323586 223.025391,72.738388 
	C222.755966,72.835808 222.628448,72.598526 222.698288,72.156136 
z"/>
<path fill="#CC2332" opacity="1.000000" stroke="none" 
	d="
M223.237885,73.656235 
	C223.412567,73.685608 223.698456,74.007820 224.007187,74.660080 
	C223.803055,74.643120 223.576065,74.296097 223.237885,73.656235 
z"/>
<path fill="#CC2332" opacity="1.000000" stroke="none" 
	d="
M225.252579,77.727196 
	C225.427002,77.749535 225.711456,78.054474 226.020248,78.682419 
	C225.817261,78.673553 225.589935,78.341675 225.252579,77.727196 
z"/>
<path fill="#CC2332" opacity="1.000000" stroke="none" 
	d="
M226.245071,79.627281 
	C226.422684,79.658981 226.714722,79.993546 227.033981,80.667969 
	C226.827301,80.648590 226.593399,80.289375 226.245071,79.627281 
z"/>
<path fill="#CC2332" opacity="1.000000" stroke="none" 
	d="
M194.252563,17.728907 
	C194.426773,17.751190 194.710861,18.055689 195.019257,18.682760 
	C194.816544,18.673927 194.589493,18.342524 194.252563,17.728907 
z"/>
<path fill="#CC2332" opacity="1.000000" stroke="none" 
	d="
M227.226746,81.611557 
	C227.397354,81.647842 227.681259,81.987801 227.995941,82.665833 
	C227.797836,82.641022 227.568954,82.278130 227.226746,81.611557 
z"/>
<path fill="#CC2332" opacity="1.000000" stroke="none" 
	d="
M228.231750,83.624954 
	C228.402634,83.659760 228.685043,83.995819 228.997070,84.667877 
	C228.798904,84.644669 228.571091,84.285439 228.231750,83.624954 
z"/>
<path fill="#CC2332" opacity="1.000000" stroke="none" 
	d="
M229.231750,85.624962 
	C229.402618,85.659767 229.685028,85.995827 229.997070,86.667892 
	C229.798904,86.644669 229.571075,86.285446 229.231750,85.624962 
z"/>
<path fill="#CC2332" opacity="1.000000" stroke="none" 
	d="
M196.231415,21.623470 
	C196.400375,21.656796 196.682587,21.989286 197.000916,22.654839 
	C196.806244,22.632811 196.575455,22.277725 196.231415,21.623470 
z"/>
</svg>